M48
;Layer_Color=9474304
;FILE_FORMAT=2:4
INCH,TZ
;TYPE=PLATED
T1F00S00C0.0118
T2F00S00C0.0394
%
T01
X827Y-6890
X2992Y-6457
X2451Y-5797
X1329Y-4193
X1102Y-3543
X817Y-3780
X217Y-3081
X354Y-2520
X787Y-2500
X669Y-1880
X1122Y-1850
X1451Y-1687
X1732Y-1378
X2406Y-1220
X1181Y-571
X3031Y-2677
X2717Y-2992
X3130Y-3711
X3789Y-4370
X3780Y-2638
X10Y-4626
X-974Y-3455
X-1299Y-3632
X-1260Y-2451
X-935Y-2746
X-394Y-1929
X-1476Y-1378
X-1755Y-1086
X-2500Y-1159
X-3248Y-689
X-3858Y-394
X-3937Y-2126
X-2795Y-2323
X-2736Y-3415
X-3110Y-3307
X-5276Y-2520
Y-1457
X-3415Y-6841
X-669Y-7589
X-1181Y0
Y551
Y1024
X-2047Y1063
X-2028Y354
X-3504Y0
X-5276Y1614
X-2205Y2362
X-1280Y2126
X-482Y2343
X-965Y3071
X-1260Y3386
X-1722
X-551Y3583
X-3504Y4016
X-3396Y4528
X-1703Y8386
X-177Y8130
X413Y8189
X2618Y8809
X3445Y5246
X1811Y4606
X1535Y4331
X1159Y4843
X1181Y5472
X148Y4970
X354Y2470
X1850Y2589
X2598Y3228
X2874Y3504
X1161Y965
X1506Y59
X-148Y404
X5236Y1496
T02
X0Y-9646
X1000
X2000
X3000
X4000
X4528Y-8213
Y-7213
Y-6213
Y-5213
Y-4213
Y-3213
Y-2213
Y-1213
X-4528
Y-2213
Y-3213
Y-4213
Y-5213
Y-6213
Y-7213
Y-8213
X-4000Y-9646
X-3000
X-2000
X-1000
X-4528Y-213
Y787
Y2024
Y3024
Y4024
Y5024
Y6024
Y7024
Y8024
Y9024
Y10024
Y11024
X4528
Y10024
Y9024
Y8024
Y7024
Y6024
Y5024
Y4024
Y3024
Y2024
Y787
Y-213
M30
