G04*
G04 #@! TF.GenerationSoftware,Altium Limited,Altium Designer,21.4.1 (30)*
G04*
G04 Layer_Color=16711935*
%FSLAX25Y25*%
%MOIN*%
G70*
G04*
G04 #@! TF.SameCoordinates,DAFBEC02-1197-4843-953F-D25F05510CB2*
G04*
G04*
G04 #@! TF.FilePolarity,Negative*
G04*
G01*
G75*
%ADD21C,0.07099*%
%ADD22R,0.07099X0.07099*%
%ADD23R,0.07099X0.07099*%
D21*
X-45276Y20236D02*
D03*
Y40236D02*
D03*
Y50236D02*
D03*
Y60236D02*
D03*
Y70236D02*
D03*
Y80236D02*
D03*
Y90236D02*
D03*
Y100236D02*
D03*
Y30236D02*
D03*
X45276Y20236D02*
D03*
Y40236D02*
D03*
Y50236D02*
D03*
Y60236D02*
D03*
Y70236D02*
D03*
Y80236D02*
D03*
Y90236D02*
D03*
Y100236D02*
D03*
Y30236D02*
D03*
X-45276Y-82126D02*
D03*
Y-62126D02*
D03*
Y-52126D02*
D03*
Y-42126D02*
D03*
Y-32126D02*
D03*
Y-22126D02*
D03*
Y-12126D02*
D03*
Y-2126D02*
D03*
Y-72126D02*
D03*
X45276Y-82126D02*
D03*
Y-62126D02*
D03*
Y-52126D02*
D03*
Y-42126D02*
D03*
Y-32126D02*
D03*
Y-22126D02*
D03*
Y-12126D02*
D03*
Y-2126D02*
D03*
Y-72126D02*
D03*
X-30000Y-96457D02*
D03*
X-20000D02*
D03*
X-10000D02*
D03*
X0D02*
D03*
X10000D02*
D03*
X20000D02*
D03*
X30000D02*
D03*
X-40000D02*
D03*
D22*
X-45276Y110236D02*
D03*
X45276D02*
D03*
X-45276Y7874D02*
D03*
X45276D02*
D03*
D23*
X40000Y-96457D02*
D03*
M02*
