G04*
G04 #@! TF.GenerationSoftware,Altium Limited,Altium Designer,21.4.1 (30)*
G04*
G04 Layer_Physical_Order=1*
G04 Layer_Color=255*
%FSLAX25Y25*%
%MOIN*%
G70*
G04*
G04 #@! TF.SameCoordinates,DAFBEC02-1197-4843-953F-D25F05510CB2*
G04*
G04*
G04 #@! TF.FilePolarity,Positive*
G04*
G01*
G75*
%ADD24R,0.03937X0.02756*%
%ADD25R,0.03150X0.03150*%
%ADD26R,0.03150X0.03150*%
%ADD27R,0.05000X0.02992*%
%ADD28R,0.02756X0.05118*%
%ADD29R,0.05118X0.02756*%
%ADD30C,0.01181*%
%ADD31C,0.01968*%
%ADD32C,0.06299*%
%ADD33R,0.06299X0.06299*%
%ADD34R,0.06299X0.06299*%
%ADD35C,0.02362*%
D24*
X24409Y-60827D02*
D03*
Y-53347D02*
D03*
X14961Y-60827D02*
D03*
Y-57087D02*
D03*
Y-53347D02*
D03*
D25*
X23031Y83858D02*
D03*
X28937D02*
D03*
Y26378D02*
D03*
X23031D02*
D03*
X-12894Y-31594D02*
D03*
X-6988D02*
D03*
X-12402Y83465D02*
D03*
X-6496D02*
D03*
Y26378D02*
D03*
X-12402D02*
D03*
D26*
X29921Y-54134D02*
D03*
Y-60039D02*
D03*
D27*
X6457Y77539D02*
D03*
Y72539D02*
D03*
Y67539D02*
D03*
Y62539D02*
D03*
Y57539D02*
D03*
Y52539D02*
D03*
Y47539D02*
D03*
Y42539D02*
D03*
X28976Y77539D02*
D03*
Y72539D02*
D03*
Y67539D02*
D03*
Y62539D02*
D03*
Y57539D02*
D03*
Y52539D02*
D03*
Y47539D02*
D03*
Y42539D02*
D03*
X-6457D02*
D03*
Y47539D02*
D03*
Y52539D02*
D03*
Y57539D02*
D03*
Y62539D02*
D03*
Y67539D02*
D03*
Y72539D02*
D03*
Y77539D02*
D03*
X-28976Y42539D02*
D03*
Y47539D02*
D03*
Y52539D02*
D03*
Y57539D02*
D03*
Y62539D02*
D03*
Y67539D02*
D03*
Y72539D02*
D03*
Y77539D02*
D03*
X28976Y-14547D02*
D03*
Y-9547D02*
D03*
Y-4547D02*
D03*
Y453D02*
D03*
Y5453D02*
D03*
Y10453D02*
D03*
Y15453D02*
D03*
Y20453D02*
D03*
X6457Y-14547D02*
D03*
Y-9547D02*
D03*
Y-4547D02*
D03*
Y453D02*
D03*
Y5453D02*
D03*
Y10453D02*
D03*
Y15453D02*
D03*
Y20453D02*
D03*
X-28976D02*
D03*
Y15453D02*
D03*
Y10453D02*
D03*
Y5453D02*
D03*
Y453D02*
D03*
Y-4547D02*
D03*
Y-9547D02*
D03*
Y-14547D02*
D03*
X-6457Y20453D02*
D03*
Y15453D02*
D03*
Y10453D02*
D03*
Y5453D02*
D03*
Y453D02*
D03*
Y-4547D02*
D03*
Y-9547D02*
D03*
Y-14547D02*
D03*
X-28976Y-37618D02*
D03*
Y-42618D02*
D03*
Y-47618D02*
D03*
Y-52618D02*
D03*
Y-57618D02*
D03*
Y-62618D02*
D03*
Y-67618D02*
D03*
Y-72618D02*
D03*
X-6457Y-37618D02*
D03*
Y-42618D02*
D03*
Y-47618D02*
D03*
Y-52618D02*
D03*
Y-57618D02*
D03*
Y-62618D02*
D03*
Y-67618D02*
D03*
Y-72618D02*
D03*
D28*
X15945Y-46063D02*
D03*
X23425D02*
D03*
D29*
X8268Y-42717D02*
D03*
Y-50197D02*
D03*
Y-63583D02*
D03*
Y-56102D02*
D03*
D30*
X-36220Y-22047D02*
Y-2756D01*
X-38583Y-394D02*
X-36220Y-2756D01*
X-38583Y-24409D02*
X-36220Y-22047D01*
X-24016Y25591D02*
X-22047Y23622D01*
X-38583Y20472D02*
X-33465Y25591D01*
X-24016D01*
X8268Y-68898D02*
Y-63583D01*
X-32018Y45502D02*
X-29980Y47539D01*
X-33731Y45502D02*
X-32018D01*
X-33957Y45276D02*
X-33731Y45502D01*
X-31732Y-71713D02*
X-29882D01*
X-34154Y-68405D02*
X-33928Y-68632D01*
X-29882Y-71713D02*
X-28976Y-72618D01*
X-33928Y-69517D02*
X-31732Y-71713D01*
X-33928Y-69517D02*
Y-68632D01*
Y-68180D02*
X-29538D01*
X-28976Y-67618D01*
X-33928Y-66565D02*
X-29980Y-62618D01*
X-34154Y-68405D02*
X-33928Y-68180D01*
Y-66565D01*
X-29980Y-62618D02*
X-28976D01*
X8169Y-60141D02*
X8861Y-59449D01*
X8169Y-63484D02*
Y-60141D01*
X8861Y-59449D02*
X11516D01*
X13091Y-57874D01*
X14173D01*
X29921Y-64567D02*
Y-60039D01*
X43676Y43221D02*
Y43234D01*
X45276Y40236D02*
Y41621D01*
X43676Y43221D02*
X45276Y41621D01*
X34449Y52461D02*
X43676Y43234D01*
X10704Y47539D02*
X11590Y48425D01*
X6457Y47539D02*
X10704D01*
X1476Y63563D02*
X5453Y67539D01*
X1476Y49705D02*
Y63563D01*
X-9747Y29032D02*
Y30607D01*
X-9646Y30709D01*
X-12402Y26378D02*
X-9747Y29032D01*
X6457Y10453D02*
X7038Y9872D01*
X11388D01*
X11614Y9646D01*
X-5512Y35827D02*
X-1476Y31791D01*
Y4035D02*
Y31791D01*
X689Y1595D02*
Y23020D01*
Y25011D02*
Y26280D01*
X591Y23119D02*
X689Y23020D01*
X-5453Y-4547D02*
X689Y1595D01*
X591Y24913D02*
X689Y25011D01*
Y26280D02*
X3937Y29528D01*
X591Y23119D02*
Y24913D01*
X2756Y-6234D02*
Y12756D01*
Y-6234D02*
X3549Y-7028D01*
X2756Y12756D02*
X5453Y15453D01*
X14173Y-57874D02*
X14961Y-57087D01*
X8169Y-63484D02*
X8268Y-63583D01*
X12968Y-41929D02*
X13287D01*
X8268Y-42717D02*
X12180D01*
X12968Y-41929D01*
X10994Y-18278D02*
X11220Y-18504D01*
X10994Y-18278D02*
Y-17073D01*
X10433Y-16511D02*
X10994Y-17073D01*
X10433Y-16511D02*
Y-7719D01*
X6693Y-18799D02*
Y-14784D01*
X13484Y-20965D02*
X19685Y-14764D01*
X5315Y-20965D02*
X13484D01*
X1083Y-16732D02*
X5315Y-20965D01*
X1083Y-16732D02*
Y-9350D01*
X6457Y-14547D02*
X6693Y-14784D01*
X-16634Y-30118D02*
X-13976Y-27461D01*
X-9350D01*
X23031Y83858D02*
X24016Y84842D01*
Y85925D02*
X26181Y88090D01*
X24016Y84842D02*
Y85925D01*
X315Y-50472D02*
X2362Y-48425D01*
Y-34744D02*
X7185Y-29921D01*
X2362Y-48425D02*
Y-34744D01*
X-10000Y-96457D02*
X315Y-86142D01*
Y-50472D01*
X31299Y-37106D02*
X37894Y-43701D01*
X2165Y-31127D02*
Y-30807D01*
X492Y-32800D02*
X2165Y-31127D01*
X492Y-34145D02*
Y-32800D01*
Y-43996D02*
Y-34145D01*
X98Y-46260D02*
X324Y-46034D01*
Y-44164D01*
X492Y-43996D01*
X-2264Y-78720D02*
Y-42864D01*
X-20000Y-96457D02*
X-2264Y-78720D01*
X-1181Y-41781D02*
Y-28543D01*
X-2264Y-42864D02*
X-1181Y-41781D01*
X4232Y-36516D02*
X8465Y-32283D01*
X0Y-95402D02*
X4232Y-91170D01*
Y-36516D01*
X7185Y-29921D02*
X18110D01*
X8465Y-32283D02*
X20866D01*
X3549Y-7028D02*
X9741D01*
X10433Y-7719D01*
X10650Y-4547D02*
X11811Y-5709D01*
X6457Y-4547D02*
X10650D01*
X6457Y453D02*
X6513Y397D01*
X10036D01*
X14512Y-4079D01*
Y-16874D02*
Y-4079D01*
X11048Y4602D02*
X15059Y591D01*
X6457Y5453D02*
X7308Y4602D01*
X11048D01*
X27972Y-14547D02*
X28976D01*
X27067Y-15453D02*
X27972Y-14547D01*
X24980Y-4547D02*
X28976D01*
Y10453D02*
X29980D01*
X37677Y2756D01*
X28976Y453D02*
X29980D01*
X40157Y-9724D01*
Y-18110D02*
Y-9724D01*
X6457Y20453D02*
X7461D01*
X17323Y10591D01*
Y-13780D02*
Y10591D01*
X29980Y-9547D02*
X33465Y-13032D01*
Y-16142D02*
Y-13032D01*
X22207Y-9547D02*
X29980D01*
X28976Y15453D02*
X29980D01*
X32933Y12500D01*
X28976Y-4547D02*
X29980D01*
X30430Y-4997D01*
X32556D01*
X28976Y5453D02*
X29980D01*
X44296Y-8863D01*
Y-11147D02*
Y-8863D01*
X6457Y-14547D02*
Y-9547D01*
X5453Y15453D02*
X6457D01*
X44296Y-11147D02*
X45276Y-12126D01*
X32556Y-4997D02*
X35433Y-7874D01*
Y-17717D02*
Y-7874D01*
X20866Y-32283D02*
X35433Y-17717D01*
X0Y-96457D02*
Y-95402D01*
X45276Y-32126D02*
X45433D01*
X51968Y-25591D01*
Y8872D01*
X48833Y12008D02*
X51968Y8872D01*
X47666Y12008D02*
X48833D01*
X47174Y12500D02*
X47666Y12008D01*
X32933Y12500D02*
X47174D01*
X21900Y-9855D02*
X22207Y-9547D01*
X21900Y-15896D02*
Y-9855D01*
X14961Y-22835D02*
X21900Y-15896D01*
X3150Y-22835D02*
X14961D01*
X-1870Y-17815D02*
X3150Y-22835D01*
X-1870Y-17815D02*
Y-13130D01*
X-5453Y-9547D02*
X-1870Y-13130D01*
X-6457Y-9547D02*
X-5453D01*
X31496Y-18110D02*
X33465Y-16142D01*
X29921Y-18110D02*
X31496D01*
X18110Y-29921D02*
X29921Y-18110D01*
X34646Y-31496D02*
X45276Y-42126D01*
X34646Y-31496D02*
Y-23622D01*
X40157Y-18110D01*
X45276Y-22126D02*
X50000Y-17402D01*
Y-1004D01*
X46240Y2756D02*
X50000Y-1004D01*
X37677Y2756D02*
X46240D01*
X19685Y-9843D02*
X24980Y-4547D01*
X19685Y-14764D02*
Y-9843D01*
X-3019Y-5249D02*
X1083Y-9350D01*
X-4751Y-5249D02*
X-3019D01*
X-5453Y-4547D02*
X-4751Y-5249D01*
X27067Y-17028D02*
Y-15453D01*
X16732Y-27362D02*
X27067Y-17028D01*
X0Y-27362D02*
X16732D01*
X-5453Y-42618D02*
X-2972Y-40138D01*
Y-30492D01*
X-1181Y-28543D02*
X197Y-27165D01*
X-12205Y-21260D02*
X-2972Y-30492D01*
X-16634Y-38445D02*
Y-30118D01*
Y-38445D02*
X-7461Y-47618D01*
X-15157Y-24508D02*
X-12598D01*
X-20669Y-30020D02*
X-15157Y-24508D01*
X-20669Y-39409D02*
Y-30020D01*
Y-39409D02*
X-7461Y-52618D01*
X-24114Y-28740D02*
X-14764Y-19390D01*
X-24114Y-40965D02*
Y-28740D01*
X-14764Y-19390D02*
Y-13780D01*
X-12992Y-31693D02*
X-12894Y-31594D01*
X-12992Y-36319D02*
Y-31693D01*
X-12205Y-21260D02*
Y-12598D01*
X-28976Y-37618D02*
X-28268D01*
X-27362Y-36713D01*
Y-34154D01*
X-24114Y-40965D02*
X-7461Y-57618D01*
X37697Y20571D02*
X44941D01*
X45276Y20236D01*
X34646Y23622D02*
X37697Y20571D01*
X46060Y65158D02*
X49409Y68507D01*
X45276Y90236D02*
X49409Y86102D01*
Y68507D02*
Y86102D01*
X40748Y65158D02*
X46060D01*
X-17224Y17913D02*
Y33858D01*
Y17913D02*
X-16142Y16831D01*
Y-5250D02*
Y16831D01*
X-12569Y20561D02*
Y21034D01*
Y20561D02*
X-7461Y15453D01*
X-12598Y33858D02*
X-12402D01*
X-14961Y19772D02*
X-14173Y18985D01*
X-14961Y19772D02*
Y40039D01*
X-12795Y21260D02*
X-12569Y21034D01*
X-14961Y40039D02*
X-7461Y47539D01*
X-19291Y16142D02*
Y25197D01*
X-18110Y-6693D02*
Y14961D01*
X-19291Y16142D02*
X-18110Y14961D01*
X-20472Y10630D02*
Y10928D01*
X-21457Y11912D02*
X-20472Y10928D01*
X-21457Y11912D02*
Y19094D01*
X-25984Y23622D02*
X-21457Y19094D01*
X-6668Y91215D02*
X984Y83563D01*
X-44296Y91215D02*
X-6668D01*
X-45276Y90236D02*
X-44296Y91215D01*
X984Y68976D02*
Y83563D01*
X-12598Y72539D02*
X-6457D01*
X-23917Y83858D02*
X-12598Y72539D01*
X-34252Y83858D02*
X-23917D01*
X-3549Y75020D02*
X-2165Y73636D01*
X-5453Y67539D02*
X-2165Y70827D01*
Y73636D01*
X-24508Y88189D02*
X-11339Y75020D01*
X-3549D01*
X-5453Y62539D02*
X984Y68976D01*
X-37323Y88189D02*
X-24508D01*
X-17028Y83858D02*
X-16634Y83465D01*
X-12402D01*
X38130Y62539D02*
X40748Y65158D01*
X28976Y62539D02*
X38130D01*
X-7461Y-9547D02*
X-6457D01*
X18996Y26378D02*
X23031D01*
X18504Y25886D02*
X18996Y26378D01*
X6457Y47539D02*
Y52539D01*
Y42539D02*
Y47539D01*
X-29980D02*
X-28976D01*
Y52539D01*
Y42539D02*
Y47539D01*
X-34646Y-26378D02*
Y-4213D01*
X-32480Y-7047D02*
Y-6890D01*
X-34646Y-4213D02*
X-29980Y453D01*
X-32480Y-7047D02*
X-29980Y-9547D01*
X-36220Y-27953D02*
X-34646Y-26378D01*
X-29980Y-9547D02*
X-28976D01*
Y-4547D01*
Y-14547D02*
Y-9547D01*
X36614Y-58043D02*
X40455Y-61884D01*
Y-63152D02*
X44508Y-67205D01*
X36614Y-58043D02*
Y-51575D01*
X40455Y-63152D02*
Y-61884D01*
X44508Y-71359D02*
Y-67205D01*
Y-71359D02*
X45276Y-72126D01*
X50000Y-77402D02*
Y-38189D01*
X45276Y-82126D02*
X50000Y-77402D01*
X47185Y-38189D02*
X50000D01*
X45256Y-36260D02*
X47185Y-38189D01*
X43563Y-36260D02*
X45256D01*
X-6693Y-72854D02*
X-6457Y-72618D01*
X-6693Y-75886D02*
Y-72854D01*
X-34035Y-30098D02*
X-30709Y-26772D01*
X-32461Y-45098D02*
X-29980Y-42618D01*
X-32461Y-50138D02*
Y-45098D01*
Y-50138D02*
X-29980Y-52618D01*
X-28976D01*
X-34035Y-60886D02*
Y-30098D01*
X-45276Y-72126D02*
X-34035Y-60886D01*
X-29980Y-42618D02*
X-28976D01*
Y-57618D02*
Y-52618D01*
Y-62618D02*
Y-57618D01*
Y-42618D02*
Y-37618D01*
X-3937Y-19291D02*
X1849Y-25077D01*
X3424D02*
X3543Y-25197D01*
X1849Y-25077D02*
X3424D01*
X-6457Y-20512D02*
X197Y-27165D01*
X-6457Y-20512D02*
Y-14547D01*
X-7461Y-47618D02*
X-6457D01*
X25492Y70020D02*
Y74731D01*
X40098Y75059D02*
X45276Y80236D01*
X25820Y75059D02*
X40098D01*
X25492Y74731D02*
X25820Y75059D01*
X29528Y32283D02*
X34646Y27165D01*
X25984Y32283D02*
X29528D01*
X34646Y23622D02*
Y27165D01*
X-2972Y49443D02*
X1969Y44502D01*
X-3855Y50326D02*
Y50942D01*
Y50326D02*
X-2972Y49443D01*
X-5453Y52539D02*
X-3855Y50942D01*
X1969Y40157D02*
Y44502D01*
X-2972Y49443D02*
Y49443D01*
X-6457Y52539D02*
X-5453D01*
X3740Y38386D02*
X13780D01*
X1969Y40157D02*
X3740Y38386D01*
X-984Y38386D02*
Y43071D01*
X1969Y35433D02*
X15748D01*
X-984Y38386D02*
X1969Y35433D01*
X5453Y67539D02*
X6457D01*
X-7461Y-52618D02*
X-6457D01*
X-18110Y-6693D02*
X-12205Y-12598D01*
X-16142Y-5250D02*
X-8366Y-13026D01*
Y-13642D02*
Y-13026D01*
X-27972Y67539D02*
X-21260Y60827D01*
X-28976Y67539D02*
X-27972D01*
X-21260Y27165D02*
Y60827D01*
Y27165D02*
X-19291Y25197D01*
X-14173Y-2835D02*
Y18985D01*
Y-2835D02*
X-7461Y-9547D01*
X-11811Y10236D02*
X-11703Y10345D01*
X-6565D01*
X-6457Y10453D01*
X-6486Y5482D02*
X-6457Y5453D01*
X-11811Y5512D02*
X-11782Y5482D01*
X-6486D01*
X-8366Y-13642D02*
X-7461Y-14547D01*
X-6457D01*
X-11491Y0D02*
X-11068Y423D01*
X-6486D01*
X-11811Y0D02*
X-11491D01*
X-17549Y-11691D02*
Y-10856D01*
X-17717Y-11859D02*
X-17549Y-11691D01*
X-17717Y-18015D02*
Y-11859D01*
X-31031Y-31329D02*
X-17717Y-18015D01*
X-6457Y-42618D02*
X-5453D01*
X24016Y-12254D02*
X24065Y-12205D01*
X24016Y-12598D02*
Y-12254D01*
Y-16794D02*
Y-12598D01*
X15810Y-25000D02*
X24016Y-16794D01*
X7874Y-25000D02*
X15810D01*
X37795Y-30492D02*
X43563Y-36260D01*
X37795Y-30492D02*
Y-26378D01*
X11811Y54724D02*
Y55512D01*
X10689Y56634D02*
X11811Y55512D01*
X7362Y56634D02*
X10689D01*
X6457Y57539D02*
X7362Y56634D01*
X14173Y44589D02*
X15354Y43408D01*
X14173Y44589D02*
Y59449D01*
X11083Y62539D02*
X14173Y59449D01*
X15354Y43307D02*
Y43408D01*
X6457Y62539D02*
X11083D01*
X16929Y47503D02*
X18110Y46322D01*
X7461Y72539D02*
X16929Y63071D01*
Y47503D02*
Y63071D01*
X7461Y77539D02*
X19685Y65315D01*
Y61443D02*
Y65315D01*
Y61443D02*
X26069Y55059D01*
X28740Y35039D02*
X40472D01*
X45276Y30236D01*
X18110Y46063D02*
Y46322D01*
X28740Y38976D02*
X31102D01*
X33465Y41339D02*
Y49055D01*
X31102Y38976D02*
X33465Y41339D01*
X19291Y29528D02*
X28740Y38976D01*
X3937Y29528D02*
X19291D01*
X6457Y72539D02*
X7461D01*
X26069Y55059D02*
X40453D01*
X45276Y50236D01*
X6457Y77539D02*
X7461D01*
X20472Y-35433D02*
X36614Y-51575D01*
X11024Y-35433D02*
X20472D01*
X30315Y-33011D02*
Y-26772D01*
Y-33011D02*
X44508Y-47205D01*
X27165Y-36220D02*
Y-29921D01*
Y-36220D02*
X39764Y-48819D01*
X-7461Y15453D02*
X-6457D01*
X-35039Y0D02*
X-34813Y226D01*
X-29980Y5453D02*
X-28976D01*
X-34813Y226D02*
Y620D01*
X-29980Y5453D01*
X-30709Y-21667D02*
X-25492Y-16451D01*
X-30709Y-26772D02*
Y-21667D01*
X-29980Y20453D02*
X-28976D01*
X-35433Y15000D02*
X-29980Y20453D01*
X-6486Y423D02*
X-6457Y453D01*
X-45276Y-62126D02*
X-36220Y-53071D01*
Y-27953D01*
X-28976Y10453D02*
X-27972D01*
X-25000Y7480D01*
Y-11591D02*
Y7480D01*
X-6457Y-4547D02*
X-5453D01*
X-25492Y-16451D02*
Y-16043D01*
X-22835Y-13386D01*
Y10315D01*
X-27972Y15453D02*
X-22835Y10315D01*
X-28976Y15453D02*
X-27972D01*
X-29980Y453D02*
X-28976D01*
X-7461Y47539D02*
X-5453D01*
X28976Y52539D02*
X29980D01*
X33465Y49055D01*
X-35433Y7480D02*
Y15000D01*
X-38583Y4331D02*
X-35433Y7480D01*
X-38583Y-394D02*
Y4331D01*
Y-45433D02*
Y-24409D01*
X-45276Y-52126D02*
X-38583Y-45433D01*
X-7461Y-57618D02*
X-6457D01*
X-27953Y-23228D02*
X-20276Y-15551D01*
Y3543D01*
X39764Y-56614D02*
X45276Y-62126D01*
X39764Y-56614D02*
Y-48819D01*
X44508Y-51359D02*
X45276Y-52126D01*
X44508Y-51359D02*
Y-47205D01*
X-45276Y-12126D02*
X-39370Y-18032D01*
Y-21260D02*
Y-18032D01*
X-22047Y23622D02*
X-22047D01*
X-40945Y15354D02*
X-38583Y17717D01*
Y20472D01*
X-48819Y15354D02*
X-40945D01*
X-54921Y9252D02*
X-48819Y15354D01*
X-54921Y-23031D02*
X-52756Y-25197D01*
X-54921Y-23031D02*
Y9252D01*
X-32283Y23622D02*
X-25984D01*
X-35973Y19932D02*
X-32283Y23622D01*
X-35973Y17081D02*
Y19932D01*
X-40062Y12992D02*
X-35973Y17081D01*
X-47849Y12992D02*
X-40062D01*
X-52756Y8085D02*
X-47849Y12992D01*
X-52756Y-14567D02*
Y8085D01*
X-35039Y40056D02*
X-33172Y38189D01*
X-26772D01*
X-24409Y40551D01*
X-35039Y40056D02*
Y40157D01*
X-24409Y40551D02*
Y53976D01*
X-27972Y57539D02*
X-24409Y53976D01*
X-28976Y57539D02*
X-27972D01*
X-33858Y50787D02*
Y58661D01*
X-45276Y20236D02*
X-37480Y28032D01*
Y47165D02*
X-33858Y50787D01*
X-37480Y28032D02*
Y47165D01*
X-36220Y52795D02*
Y66299D01*
X-45276Y30236D02*
X-40748Y34764D01*
Y48268D02*
X-36220Y52795D01*
X-40748Y34764D02*
Y48268D01*
X-36220Y66299D02*
X-29980Y72539D01*
X-33858Y58661D02*
X-29980Y62539D01*
X-40945Y72244D02*
X-32480Y80709D01*
X-40945Y64567D02*
Y72244D01*
X-45276Y60236D02*
X-40945Y64567D01*
X-38583Y68937D02*
X-29980Y77539D01*
X-45276Y50236D02*
X-38583Y56929D01*
Y68937D01*
X-24803Y80709D02*
X-17217Y73123D01*
Y67296D02*
Y73123D01*
X-32480Y80709D02*
X-24803D01*
X-44296Y73814D02*
X-34252Y83858D01*
X-45276Y70236D02*
X-44296Y71215D01*
Y73814D01*
X-45276Y80236D02*
X-37323Y88189D01*
X-12402Y33858D02*
X-6457Y39803D01*
X-31102Y-33071D02*
X-31031Y-32999D01*
Y-31329D01*
X-42239Y-7593D02*
X-38583Y-3937D01*
X-50394Y-10236D02*
X-47751Y-7593D01*
X-42239D01*
X-46043Y-81359D02*
Y-77205D01*
X-50394Y-72854D02*
X-46043Y-77205D01*
X-50394Y-72854D02*
Y-10236D01*
X-46043Y-81359D02*
X-45276Y-82126D01*
X-46063Y-93307D02*
X-42126Y-89370D01*
X-35827D02*
X-24409Y-77953D01*
X-42126Y-89370D02*
X-35827D01*
X-24409Y-77953D02*
Y-51181D01*
X-27972Y-47618D02*
X-24409Y-51181D01*
X-28976Y-47618D02*
X-27972D01*
X-46063Y-100000D02*
Y-93307D01*
Y-100000D02*
X-41339Y-104724D01*
X11732D01*
X20000Y-96457D01*
X-30000Y-91024D02*
X-17717Y-78740D01*
Y-72874D02*
X-7461Y-62618D01*
X-17717Y-78740D02*
Y-72874D01*
X-24311Y-93209D02*
X-13780Y-82677D01*
Y-73937D01*
X-24311Y-98130D02*
Y-93209D01*
X-27559Y-101378D02*
X-24311Y-98130D01*
X-35079Y-101378D02*
X-27559D01*
X-40000Y-96457D02*
X-35079Y-101378D01*
X-30000Y-96457D02*
Y-91024D01*
X-6457Y42539D02*
X-6420Y42503D01*
Y39885D02*
X984Y32480D01*
X-6420Y39885D02*
Y42503D01*
X17913Y32480D02*
X27972Y42539D01*
X984Y32480D02*
X17913D01*
X15748Y35433D02*
X26949Y46634D01*
X27027Y51634D02*
X28071D01*
X13780Y38386D02*
X27027Y51634D01*
X28071D02*
X28976Y52539D01*
X26949Y46634D02*
X28071D01*
X27972Y42539D02*
X28976D01*
X28071Y46634D02*
X28976Y47539D01*
X-5453D02*
X-984Y43071D01*
X41194Y57539D02*
X43891Y60236D01*
X45276D01*
X28976Y57539D02*
X41194D01*
X25492Y70020D02*
X27972Y67539D01*
X28976D01*
Y72539D02*
X41587D01*
X43891Y70236D01*
X45276D01*
X-6457Y62539D02*
X-5453D01*
X-6457Y67539D02*
X-5453D01*
X-17217Y67296D02*
X-7461Y57539D01*
X-6457D01*
X-29980Y62539D02*
X-28976D01*
X-29980Y72539D02*
X-28976D01*
X-29980Y77539D02*
X-28976D01*
X-13780Y-73937D02*
X-7461Y-67618D01*
X-6457D01*
X-7461Y-62618D02*
X-6457D01*
X14961Y-53347D02*
Y-48228D01*
X15945Y-47244D01*
Y-46063D01*
X9449Y-56102D02*
X11417Y-54134D01*
X14173D02*
X14961Y-53347D01*
X8268Y-56102D02*
X9449D01*
X11417Y-54134D02*
X14173D01*
X8268Y-56102D02*
Y-50197D01*
D31*
X13080Y81890D02*
X17431Y77539D01*
X4134Y81890D02*
X13080D01*
X3543Y24705D02*
X13681D01*
X18307Y20079D01*
X17224Y-38681D02*
X23425Y-44882D01*
X9162Y-38681D02*
X17224D01*
X8276Y-37795D02*
X9162Y-38681D01*
X-9669Y-34472D02*
Y-34275D01*
X-9744Y-34547D02*
X-9669Y-34472D01*
Y-34275D02*
X-6988Y-31594D01*
X24409Y-60827D02*
X24508Y-60728D01*
Y-57972D01*
X8169Y-37795D02*
X8276D01*
X29980Y20453D02*
X35149Y15284D01*
X47174D01*
X28937Y26378D02*
X28957Y26358D01*
Y20472D02*
Y26358D01*
X28563Y20079D02*
X28957Y20472D01*
X18307Y20079D02*
X28563D01*
X28976Y20453D02*
X29980D01*
X23425Y-46063D02*
Y-44882D01*
Y-47244D02*
Y-46063D01*
X-6722Y-37352D02*
X-6457Y-37618D01*
X-6722Y-37352D02*
Y-31860D01*
X-6988Y-31594D02*
X-6722Y-31860D01*
X40000Y-96457D02*
X54724Y-81732D01*
Y8900D01*
X49648Y13976D02*
X54724Y8900D01*
X48481Y13976D02*
X49648D01*
X47174Y15284D02*
X48481Y13976D01*
X52362Y14961D02*
X54331Y16929D01*
Y101181D01*
X47174Y15284D02*
X51378Y19488D01*
X47567Y94764D02*
X51378Y90953D01*
X39843Y94764D02*
X47567D01*
X51378Y19488D02*
Y90953D01*
X45276Y110236D02*
X54331Y101181D01*
X28937Y83858D02*
X39843Y94764D01*
X-6476Y80502D02*
X-2675D01*
X-1878Y81299D02*
X-1772D01*
X-2675Y80502D02*
X-1878Y81299D01*
X-6476Y80502D02*
Y83445D01*
Y77559D02*
Y80502D01*
X17431Y77539D02*
X28976D01*
X-6476Y23425D02*
Y26358D01*
Y20472D02*
Y23415D01*
X-4833D01*
X-4823Y23425D01*
X-6496Y26378D02*
X-6476Y26358D01*
Y20472D02*
X-6457Y20453D01*
X-45276Y110236D02*
X45276D01*
X28957Y77559D02*
X28976Y77539D01*
X28957Y77559D02*
Y83839D01*
X28937Y83858D02*
X28957Y83839D01*
X-6476Y77559D02*
X-6457Y77539D01*
X-6496Y83465D02*
X-6476Y83445D01*
X24409Y-53347D02*
Y-48228D01*
X23425Y-47244D02*
X24409Y-48228D01*
X25787Y-54134D02*
X29921D01*
X25000Y-53347D02*
X25787Y-54134D01*
X24409Y-53347D02*
X25000D01*
X35256Y-60736D02*
Y-59469D01*
Y-60736D02*
X40000Y-65480D01*
Y-96457D02*
Y-65480D01*
X29921Y-54134D02*
X35256Y-59469D01*
X-52756Y102756D02*
X-45276Y110236D01*
X-52756Y16142D02*
Y102756D01*
X14961Y-60827D02*
X24409D01*
D32*
X-45276Y20236D02*
D03*
Y40236D02*
D03*
Y50236D02*
D03*
Y60236D02*
D03*
Y70236D02*
D03*
Y80236D02*
D03*
Y90236D02*
D03*
Y100236D02*
D03*
Y30236D02*
D03*
X45276Y20236D02*
D03*
Y40236D02*
D03*
Y50236D02*
D03*
Y60236D02*
D03*
Y70236D02*
D03*
Y80236D02*
D03*
Y90236D02*
D03*
Y100236D02*
D03*
Y30236D02*
D03*
X-45276Y-82126D02*
D03*
Y-62126D02*
D03*
Y-52126D02*
D03*
Y-42126D02*
D03*
Y-32126D02*
D03*
Y-22126D02*
D03*
Y-12126D02*
D03*
Y-2126D02*
D03*
Y-72126D02*
D03*
X45276Y-82126D02*
D03*
Y-62126D02*
D03*
Y-52126D02*
D03*
Y-42126D02*
D03*
Y-32126D02*
D03*
Y-22126D02*
D03*
Y-12126D02*
D03*
Y-2126D02*
D03*
Y-72126D02*
D03*
X-30000Y-96457D02*
D03*
X-20000D02*
D03*
X-10000D02*
D03*
X0D02*
D03*
X10000D02*
D03*
X20000D02*
D03*
X30000D02*
D03*
X-40000D02*
D03*
D33*
X-45276Y110236D02*
D03*
X45276D02*
D03*
X-45276Y7874D02*
D03*
X45276D02*
D03*
D34*
X40000Y-96457D02*
D03*
D35*
X8268Y-68898D02*
D03*
X-33957Y45276D02*
D03*
X-34154Y-68405D02*
D03*
X29921Y-64567D02*
D03*
X4134Y81890D02*
D03*
X34449Y52461D02*
D03*
X11590Y48425D02*
D03*
X1476Y49705D02*
D03*
X-9646Y30709D02*
D03*
X3543Y24705D02*
D03*
X11614Y9646D02*
D03*
X-1476Y4035D02*
D03*
X13287Y-41929D02*
D03*
X11220Y-18504D02*
D03*
X6693Y-18799D02*
D03*
X-9350Y-27461D02*
D03*
X-9744Y-34547D02*
D03*
X26181Y88090D02*
D03*
X31299Y-37106D02*
D03*
X37894Y-43701D02*
D03*
X24508Y-57972D02*
D03*
X98Y-46260D02*
D03*
X2165Y-30807D02*
D03*
X8169Y-37795D02*
D03*
X11811Y-5709D02*
D03*
X15059Y591D02*
D03*
X-12992Y-36319D02*
D03*
X-12598Y-24508D02*
D03*
X-27362Y-34154D02*
D03*
X52362Y14961D02*
D03*
X-12795Y21260D02*
D03*
X-12598Y33858D02*
D03*
X-17224D02*
D03*
X-1772Y81299D02*
D03*
X-17028Y83858D02*
D03*
X-4823Y23425D02*
D03*
X18504Y25886D02*
D03*
X-32480Y-6890D02*
D03*
X-6693Y-75886D02*
D03*
X-3937Y-19291D02*
D03*
X3543Y-25197D02*
D03*
X-5512Y35827D02*
D03*
X-17549Y-10856D02*
D03*
X-11811Y10236D02*
D03*
Y5512D02*
D03*
Y0D02*
D03*
X24065Y-12205D02*
D03*
X7874Y-25000D02*
D03*
X37795Y-26378D02*
D03*
X-52756Y16142D02*
D03*
X11811Y54724D02*
D03*
X28740Y35039D02*
D03*
X25984Y32283D02*
D03*
X18110Y46063D02*
D03*
X15354Y43307D02*
D03*
X11024Y-35433D02*
D03*
X30315Y-26772D02*
D03*
X27165Y-29921D02*
D03*
X-25000Y-11591D02*
D03*
X-14764Y-13780D02*
D03*
X-20472Y10630D02*
D03*
X-20276Y3543D02*
D03*
X17323Y-13780D02*
D03*
X14512Y-16874D02*
D03*
X-39370Y-21260D02*
D03*
X-27953Y-23228D02*
D03*
X-22047Y23622D02*
D03*
X-52756Y-25197D02*
D03*
Y-14567D02*
D03*
X-35039Y40157D02*
D03*
X-31102Y-33071D02*
D03*
X-38583Y-3937D02*
D03*
X-35039Y0D02*
D03*
M02*
